<svg width="1217" height="492" viewBox="0 0 1217 492" fill="none" xmlns="http://www.w3.org/2000/svg">
<path d="M2.70703 474.887V407.93H31.6864C49.0929 407.93 62.1712 418.808 62.1712 441.033C62.1712 460.445 52.1978 474.887 31.6864 474.887H2.70703ZM17.479 420.308V462.508H30.6514C39.2135 462.508 47.3993 457.257 47.3993 442.44C47.3993 428.936 42.6948 420.308 28.0169 420.308H17.479Z" fill="black"/>
<path d="M117.139 453.881H82.0438C82.4202 462.321 86.5601 466.166 93.9931 466.166C99.3562 466.166 103.684 462.883 104.531 459.883H116.292C112.529 471.323 104.531 476.2 93.5227 476.2C78.1862 476.2 68.6832 465.697 68.6832 450.692C68.6832 436.157 78.7507 425.091 93.5227 425.091C110.082 425.091 118.08 438.97 117.139 453.881ZM82.0438 445.441H103.778C102.555 438.689 99.6384 435.125 93.1463 435.125C84.6783 435.125 82.232 441.69 82.0438 445.441Z" fill="black"/>
<path d="M171.167 453.881H136.071C136.448 462.321 140.588 466.166 148.021 466.166C153.384 466.166 157.712 462.883 158.559 459.883H170.32C166.556 471.323 158.559 476.2 147.55 476.2C132.214 476.2 122.711 465.697 122.711 450.692C122.711 436.157 132.778 425.091 147.55 425.091C164.11 425.091 172.107 438.97 171.167 453.881ZM136.071 445.441H157.806C156.583 438.689 153.666 435.125 147.174 435.125C138.706 435.125 136.26 441.69 136.071 445.441Z" fill="black"/>
<path d="M179.091 491.954V426.404H191.793V432.593H191.981C195.18 427.435 200.449 425.091 206.471 425.091C221.713 425.091 228.581 437.376 228.581 451.161C228.581 464.103 221.431 476.2 207.223 476.2C201.39 476.2 195.838 473.668 192.639 468.885H192.451V491.954H179.091ZM203.648 466.166C212.398 466.166 215.221 458.663 215.221 450.786C215.221 443.096 212.116 435.125 203.554 435.125C194.803 435.125 191.981 442.909 191.981 450.786C191.981 458.663 194.992 466.166 203.648 466.166Z" fill="black"/>
<path d="M320.067 407.93L302.002 474.887H287.324L275.939 429.311H275.751L264.554 474.887H249.594L231.811 407.93H246.583L257.215 453.506H257.403L269.071 407.93H282.902L294.38 454.068H294.569L305.577 407.93H320.067Z" fill="black"/>
<path d="M352.266 456.131V451.161C350.008 453.131 345.304 453.224 341.164 453.975C337.024 454.819 333.26 456.225 333.26 461.102C333.26 466.072 337.118 467.291 341.446 467.291C351.89 467.291 352.266 459.039 352.266 456.131ZM334.766 441.315H321.405C322.158 428.842 333.355 425.091 344.269 425.091C353.96 425.091 365.627 427.248 365.627 438.876V464.103C365.627 468.51 366.097 472.918 367.321 474.887H353.772C353.301 473.386 352.925 471.792 352.831 470.198C348.597 474.606 342.387 476.2 336.459 476.2C327.239 476.2 319.9 471.605 319.9 461.664C319.9 450.692 328.18 448.067 336.459 446.941C344.645 445.722 352.266 446.003 352.266 440.564C352.266 434.844 348.315 434 343.61 434C338.529 434 335.236 436.063 334.766 441.315Z" fill="black"/>
<path d="M392.933 411.868V426.404H402.719V435.313H392.933V459.32C392.933 463.821 394.062 464.947 398.579 464.947C399.99 464.947 401.307 464.853 402.719 464.571V474.981C400.461 475.356 397.544 475.45 394.909 475.45C386.724 475.45 379.573 473.574 379.573 463.915V435.313H371.481V426.404H379.573V411.868H392.933Z" fill="black"/>
<path d="M455.179 453.881H420.084C420.46 462.321 424.6 466.166 432.033 466.166C437.396 466.166 441.724 462.883 442.571 459.883H454.332C450.569 471.323 442.571 476.2 431.563 476.2C416.226 476.2 406.723 465.697 406.723 450.692C406.723 436.157 416.791 425.091 431.563 425.091C448.122 425.091 456.12 438.97 455.179 453.881ZM420.084 445.441H441.818C440.595 438.689 437.679 435.125 431.186 435.125C422.718 435.125 420.272 441.69 420.084 445.441Z" fill="black"/>
<path d="M463.103 474.887V426.404H475.805V435.407H475.993C478.44 429.311 485.026 425.091 491.518 425.091C492.459 425.091 493.588 425.279 494.435 425.56V437.939C493.212 437.657 491.236 437.47 489.636 437.47C479.851 437.47 476.464 444.503 476.464 453.037V474.887H463.103Z" fill="black"/>
<path d="M527.271 474.887V407.93H577.515V420.308H542.043V434.656H574.598V446.097H542.043V462.508H578.267V474.887H527.271Z" fill="black"/>
<path d="M581.79 474.887L599.29 449.379L583.295 426.404H598.537L607.1 439.064L615.568 426.404H630.34L614.344 449.098L632.315 474.887H617.073L606.911 459.601L596.75 474.887H581.79Z" fill="black"/>
<path d="M637.406 491.954V426.404H650.108V432.593H650.297C653.496 427.435 658.765 425.091 664.786 425.091C680.029 425.091 686.897 437.376 686.897 451.161C686.897 464.103 679.747 476.2 665.539 476.2C659.706 476.2 654.154 473.668 650.955 468.885H650.767V491.954H637.406ZM661.964 466.166C670.714 466.166 673.537 458.663 673.537 450.786C673.537 443.096 670.432 435.125 661.87 435.125C653.119 435.125 650.297 442.909 650.297 450.786C650.297 458.663 653.308 466.166 661.964 466.166Z" fill="black"/>
<path d="M695.302 474.887V407.93H708.663V474.887H695.302Z" fill="black"/>
<path d="M717.678 450.692C717.678 435.219 727.557 425.091 742.799 425.091C758.136 425.091 768.015 435.219 768.015 450.692C768.015 466.072 758.136 476.2 742.799 476.2C727.557 476.2 717.678 466.072 717.678 450.692ZM731.038 450.692C731.038 458.382 733.767 466.166 742.799 466.166C751.926 466.166 754.655 458.382 754.655 450.692C754.655 442.909 751.926 435.125 742.799 435.125C733.767 435.125 731.038 442.909 731.038 450.692Z" fill="black"/>
<path d="M776.702 474.887V426.404H789.404V435.407H789.592C792.039 429.311 798.625 425.091 805.117 425.091C806.058 425.091 807.187 425.279 808.034 425.56V437.939C806.811 437.657 804.835 437.47 803.235 437.47C793.45 437.47 790.063 444.503 790.063 453.037V474.887H776.702Z" fill="black"/>
<path d="M843.569 456.131V451.161C841.31 453.131 836.606 453.224 832.466 453.975C828.326 454.819 824.563 456.225 824.563 461.102C824.563 466.072 828.42 467.291 832.748 467.291C843.192 467.291 843.569 459.039 843.569 456.131ZM826.068 441.315H812.707C813.46 428.842 824.657 425.091 835.571 425.091C845.262 425.091 856.929 427.248 856.929 438.876V464.103C856.929 468.51 857.4 472.918 858.623 474.887H845.074C844.603 473.386 844.227 471.792 844.133 470.198C839.899 474.606 833.689 476.2 827.762 476.2C818.541 476.2 811.202 471.605 811.202 461.664C811.202 450.692 819.482 448.067 827.762 446.941C835.947 445.722 843.569 446.003 843.569 440.564C843.569 434.844 839.617 434 834.912 434C829.832 434 826.538 436.063 826.068 441.315Z" fill="black"/>
<path d="M884.236 411.868V426.404H894.021V435.313H884.236V459.32C884.236 463.821 885.365 464.947 889.881 464.947C891.292 464.947 892.609 464.853 894.021 464.571V474.981C891.763 475.356 888.846 475.45 886.211 475.45C878.026 475.45 870.875 473.574 870.875 463.915V435.313H862.783V426.404H870.875V411.868H884.236Z" fill="black"/>
<path d="M900.754 474.887V426.404H914.115V474.887H900.754ZM914.115 407.93V418.902H900.754V407.93H914.115Z" fill="black"/>
<path d="M923.129 450.692C923.129 435.219 933.009 425.091 948.251 425.091C963.588 425.091 973.467 435.219 973.467 450.692C973.467 466.072 963.588 476.2 948.251 476.2C933.009 476.2 923.129 466.072 923.129 450.692ZM936.49 450.692C936.49 458.382 939.219 466.166 948.251 466.166C957.378 466.166 960.106 458.382 960.106 450.692C960.106 442.909 957.378 435.125 948.251 435.125C939.219 435.125 936.49 442.909 936.49 450.692Z" fill="black"/>
<path d="M982.154 474.887V426.404H994.856V433.156H995.138C998.526 427.717 1004.36 425.091 1010 425.091C1024.21 425.091 1027.79 433.062 1027.79 445.066V474.887H1014.43V447.504C1014.43 439.533 1012.07 435.594 1005.86 435.594C998.62 435.594 995.515 439.627 995.515 449.473V474.887H982.154Z" fill="black"/>
<path d="M1065.53 474.887V407.93H1080.3V474.887H1065.53Z" fill="black"/>
<path d="M1091.86 474.887V426.404H1104.57V433.156H1104.85C1108.23 427.717 1114.07 425.091 1119.71 425.091C1133.92 425.091 1137.5 433.062 1137.5 445.066V474.887H1124.14V447.504C1124.14 439.533 1121.78 435.594 1115.57 435.594C1108.33 435.594 1105.22 439.627 1105.22 449.473V474.887H1091.86Z" fill="black"/>
<path d="M1193.83 443.471H1180.76C1179.91 438.032 1176.43 435.125 1170.88 435.125C1162.31 435.125 1159.49 443.753 1159.49 450.88C1159.49 457.819 1162.22 466.166 1170.59 466.166C1176.8 466.166 1180.38 462.227 1181.23 456.319H1194.12C1192.42 469.166 1183.48 476.2 1170.69 476.2C1156.01 476.2 1146.13 465.884 1146.13 451.349C1146.13 436.251 1155.16 425.091 1170.97 425.091C1182.45 425.091 1192.99 431.093 1193.83 443.471Z" fill="black"/>
<path d="M1202.23 474.887V460.445H1217V474.887H1202.23Z" fill="black"/>
<path d="M976.986 244.473C912.996 241.495 864.02 278.077 864.02 278.077L865.828 280.784C865.828 280.784 967.376 204.593 1068.51 282.886H1068.51C1090.09 299.587 1111.02 305.478 1130.61 304.142C1150.2 302.806 1168.39 294.299 1184.72 282.478L1182.96 279.74C1166.94 291.331 1149.27 299.549 1130.41 300.835C1111.55 302.12 1091.45 296.525 1070.36 280.206C1038.26 255.354 1006.07 245.829 976.983 244.475L976.986 244.473Z" fill="#46BBE7"/>
<path d="M972.935 257.389C913.744 255.454 869.797 289.178 869.797 289.178L892.909 327.065C892.909 327.065 960.802 271.094 1038.65 327.558L1038.66 327.563C1087 362.615 1132.03 363.558 1163.53 354.304C1195.03 345.05 1214.89 325.541 1214.89 325.541L1188.34 290.696C1188.34 290.696 1176.02 302.989 1153.41 309.631C1130.81 316.273 1099.81 317.21 1060.41 288.644H1060.4C1029.89 266.517 999.84 258.268 972.935 257.389Z" fill="#46BBE7"/>
<path d="M976.986 122.333C912.996 119.354 864.02 155.932 864.02 155.932L865.828 158.639C865.828 158.639 967.38 82.4549 1068.51 160.741C1090.09 177.441 1111.02 183.33 1130.61 181.992C1150.2 180.654 1168.39 172.14 1184.72 160.328L1182.96 157.59C1166.94 169.173 1149.27 177.392 1130.41 178.68C1111.55 179.968 1091.45 174.379 1070.36 158.061C1038.26 133.211 1006.07 123.688 976.983 122.334L976.986 122.333Z" fill="#46BBE7"/>
<path d="M972.931 135.249C913.74 133.308 869.797 167.014 869.797 167.014L892.901 204.911C892.901 204.911 960.8 148.966 1038.65 205.422C1086.99 240.476 1132.03 241.415 1163.53 232.154C1195.03 222.893 1214.89 203.383 1214.89 203.383L1188.33 168.542C1188.33 168.542 1176.02 180.84 1153.41 187.486C1130.8 194.132 1099.8 195.071 1060.4 166.503C1029.89 144.378 999.836 136.13 972.931 135.249Z" fill="#46BBE7"/>
<path d="M976.986 0.171971C912.996 -2.80224 864.02 33.7873 864.02 33.7873L865.828 36.4941C865.828 36.4941 967.376 -39.7173 1068.51 38.5781C1090.09 55.2923 1111.02 61.1848 1130.61 59.8475C1150.2 58.5104 1168.39 49.999 1184.72 38.188L1182.96 35.4497C1166.94 47.0317 1149.27 55.248 1130.41 56.5355C1111.55 57.8228 1091.45 52.2344 1070.36 35.9024C1038.26 11.05 1006.07 1.52301 976.983 0.171516L976.986 0.171971Z" fill="#46BBE7"/>
<path d="M972.935 13.0885C913.744 11.1476 869.797 44.8635 869.797 44.8635L892.905 82.7513C892.905 82.7513 960.796 26.7916 1038.65 83.2667H1038.65C1086.99 118.314 1132.03 119.257 1163.53 109.998C1195.03 100.741 1214.88 81.2314 1214.88 81.2314L1188.34 46.3863C1188.34 46.3863 1176.02 58.6805 1153.41 65.3253C1130.8 71.9699 1099.8 72.9111 1060.4 44.3517L1060.4 44.3471C1029.89 22.2174 999.838 13.9696 972.935 13.0885Z" fill="#46BBE7"/>
<path d="M334.521 0.863887L389.042 0.308594L450.853 177.026L422.064 260.615L334.521 0.863887Z" fill="black"/>
<path d="M621.666 2.03516L564.031 2.16964L442.635 358.997L499.712 358.926L588.305 99.6636L639.985 259.273L665.393 169.517L621.652 2.0806L621.666 2.03516Z" fill="black"/>
<path d="M785.198 2.14844H844.166L719.803 357.851L661.982 358.39L785.198 2.14844Z" fill="black"/>
<path d="M0.00205127 0.585449V54.1221H176.358C176.372 54.1129 176.387 54.1014 176.402 54.0918C211.602 54.1101 245.424 76.0714 264.763 115.444C284.095 154.844 284.094 204.996 264.761 244.391C245.413 283.812 211.588 305.738 176.359 305.738V305.772H53.5371V116.138H0V359.27H53.5371V359.233H176.356L176.359 359.23V359.237C233.825 359.237 285.616 323.05 312.626 268.015V268.012C339.627 212.993 339.627 146.83 312.626 91.8086L312.619 91.804C285.607 36.8126 233.836 0.588426 176.354 0.588426V0.586115L0.00205127 0.585449Z" fill="black"/>
</svg>
